<svg xmlns="http://www.w3.org/2000/svg" width="48" height="48" viewBox="0 0 48 48" fill="none">
  <defs>
    <filter id="wc-blur" x="-50%" y="-50%" width="200%" height="200%">
      <feGaussianBlur stdDeviation="3.5"/>
    </filter>
  </defs>
  <!-- nền giấy bo mềm -->
  <rect width="48" height="48" rx="12" fill="#faf8f5"/>
  <!-- mảng màu nước loang phía sau -->
  <ellipse cx="18" cy="16" rx="15" ry="13" fill="#85cdca" opacity=".45" filter="url(#wc-blur)"/>
  <ellipse cx="33" cy="34" rx="14" ry="12" fill="#e8a87c" opacity=".4" filter="url(#wc-blur)"/>
  <!-- tờ giấy góc gập -->
  <path d="M15 7h13l7 7v23a3 3 0 0 1-3 3H15a3 3 0 0 1-3-3V10a3 3 0 0 1 3-3Z" fill="#fffdf9" stroke="#4a6fa5" stroke-width="2.4" stroke-linejoin="round"/>
  <path d="M28 7v7h7" fill="#85cdca" fill-opacity=".5" stroke="#4a6fa5" stroke-width="2.4" stroke-linejoin="round"/>
  <path d="M17 20h10M17 25h12M17 30h8" stroke="#4a6fa5" stroke-width="2.4" stroke-linecap="round" opacity=".55"/>
  <!-- bong bóng chat hồng đá -->
  <path d="M28 28h9a3 3 0 0 1 3 3v4a3 3 0 0 1-3 3h-2l-4 4v-4h-3a3 3 0 0 1-3-3v-4a3 3 0 0 1 3-3Z" fill="#c38d94" fill-opacity=".9" stroke="#4a6fa5" stroke-width="2.4" stroke-linejoin="round"/>
  <circle cx="31" cy="33" r="1.4" fill="#fffdf9"/>
  <circle cx="35.5" cy="33" r="1.4" fill="#fffdf9"/>
</svg>
